<?xml version="1.0" encoding="UTF-8" standalone="no"?>
<svg
   xmlns:dc="http://purl.org/dc/elements/1.1/"
   xmlns:cc="http://creativecommons.org/ns#"
   xmlns:rdf="http://www.w3.org/1999/02/22-rdf-syntax-ns#"
   xmlns:svg="http://www.w3.org/2000/svg"
   xmlns="http://www.w3.org/2000/svg"
   xmlns:sodipodi="http://sodipodi.sourceforge.net/DTD/sodipodi-0.dtd"
   xmlns:inkscape="http://www.inkscape.org/namespaces/inkscape"
   width="188.774885982mm"
   height="103.701468353mm"
   viewBox="0 0 188.774885982 103.701468353"
   version="1.1"
   id="svg29"
   sodipodi:docname="front.svg"
   inkscape:version="0.92.3 (2405546, 2018-03-11)">
  <metadata
     id="metadata35">
    <rdf:RDF>
      <cc:Work
         rdf:about="">
        <dc:format>image/svg+xml</dc:format>
        <dc:type
           rdf:resource="http://purl.org/dc/dcmitype/StillImage" />
        <dc:title></dc:title>
      </cc:Work>
    </rdf:RDF>
  </metadata>
  <defs
     id="defs33" />
  <sodipodi:namedview
     pagecolor="#ffffff"
     bordercolor="#666666"
     borderopacity="1"
     objecttolerance="10"
     gridtolerance="10"
     guidetolerance="10"
     inkscape:pageopacity="0"
     inkscape:pageshadow="2"
     inkscape:window-width="1920"
     inkscape:window-height="1040"
     id="namedview31"
     showgrid="false"
     inkscape:snap-bbox="true"
     inkscape:snap-bbox-midpoints="true"
     inkscape:zoom="1.2042581"
     inkscape:cx="386.43443"
     inkscape:cy="270.43959"
     inkscape:window-x="1920"
     inkscape:window-y="0"
     inkscape:window-maximized="1"
     inkscape:current-layer="svg29" />
  <path
     inkscape:connector-curvature="0"
     style="fill:none;fill-opacity:1;fill-rule:evenodd;stroke:#000000;stroke-width:0.34999999;stroke-miterlimit:4;stroke-dasharray:none"
     d="m 51.63744,1.85073 a 50.000205,50.000205 0 1 0 -4.1e-4,100.00041 l 4.1e-4,-4.1e-4 A 50,50 0 1 1 51.63703,1.85114 Z"
     id="Extrude002_f0000" />
  <path
     inkscape:connector-curvature="0"
     style="fill:none;fill-opacity:1;fill-rule:evenodd;stroke:#000000;stroke-width:0.34999999;stroke-miterlimit:4;stroke-dasharray:none"
     d="m 137.13744,1.85073 h -85.5 v 0 z"
     id="Extrude002_f0001" />
  <path
     inkscape:connector-curvature="0"
     style="fill:none;fill-opacity:1;fill-rule:evenodd;stroke:#000000;stroke-width:0.34999999;stroke-miterlimit:4;stroke-dasharray:none"
     d="m 137.13744,101.85073 a 50,50 0 0 0 -4.1e-4,-99.99959 l 4.1e-4,-4.1e-4 a 50.000205,50.000205 0 0 1 -4.1e-4,100.00041 z"
     id="Extrude002_f0002" />
  <path
     inkscape:connector-curvature="0"
     style="fill:none;fill-opacity:1;fill-rule:evenodd;stroke:#000000;stroke-width:0.34999999;stroke-miterlimit:4;stroke-dasharray:none"
     d="m 51.63744,101.85073 v 0 h 85.5 v 0 z"
     id="Extrude002_f0003" />
  <path
     inkscape:connector-curvature="0"
     style="fill:none;fill-opacity:1;fill-rule:evenodd;stroke:#000000;stroke-width:0.34999999;stroke-miterlimit:4;stroke-dasharray:none"
     d="m 143.04148,85.3342 v 0 a 2.5,2.5 0 0 1 0.86855,4.92394 l -3.1e-4,1e-4 a 2.5000692,2.5000692 0 0 0 -0.86869,-4.9241 z"
     id="Extrude002_f0004" />
  <path
     inkscape:connector-curvature="0"
     style="fill:none;fill-opacity:1;fill-rule:evenodd;stroke:#000000;stroke-width:0.34999999;stroke-miterlimit:4;stroke-dasharray:none"
     d="m 143.90972,90.25824 v 0 a 39,39 0 1 1 3.1e-4,-76.8151 l -3.1e-4,9e-5 a 39,39 0 1 0 3.1e-4,76.81491 z"
     id="Extrude002_f0005" />
  <path
     inkscape:connector-curvature="0"
     style="fill:none;fill-opacity:1;fill-rule:evenodd;stroke:#000000;stroke-width:0.34999999;stroke-miterlimit:4;stroke-dasharray:none"
     d="m 143.90972,13.44323 v 0 a 2.5,2.5 0 0 1 -0.86869,4.92391 l 4.5e-4,1.3e-4 a 2.5000722,2.5000722 0 0 0 0.86855,-4.92413 z"
     id="Extrude002_f0006" />
  <path
     inkscape:connector-curvature="0"
     style="fill:none;fill-opacity:1;fill-rule:evenodd;stroke:#000000;stroke-width:0.34999999;stroke-miterlimit:4;stroke-dasharray:none"
     d="m 143.04148,18.36727 a 34,34 0 1 0 -4.5e-4,66.96687 l 4.5e-4,6e-5 a 34,34 0 1 1 -4.5e-4,-66.96706 z"
     id="Extrude002_f0007" />
  <path
     inkscape:connector-curvature="0"
     id="path14"
     style="fill:none;stroke:#000000;stroke-width:0.34999999;stroke-miterlimit:4;stroke-dasharray:none"
     d="m 71.27028,59.7488 v 0" />
  <path
     inkscape:connector-curvature="0"
     id="path16"
     style="fill:none;stroke:#000000;stroke-width:0.34999999;stroke-miterlimit:4;stroke-dasharray:none"
     d="m 36.2672,59.7488 v 0" />
  <path
     inkscape:connector-curvature="0"
     id="path18"
     style="fill:none;stroke:#000000;stroke-width:0.34999999;stroke-miterlimit:4;stroke-dasharray:none"
     d="m 154.78744,51.85073 v 0" />
  <path
     inkscape:connector-curvature="0"
     id="path20"
     style="fill:none;stroke:#000000;stroke-width:0.34999999;stroke-miterlimit:4;stroke-dasharray:none"
     d="m 122.78744,51.85073 v 0" />
  <circle
     id="circle10"
     style="fill:none;stroke:#000000;stroke-width:0.34999999;stroke-miterlimit:4;stroke-dasharray:none"
     r="10"
     cy="-51.850735"
     cx="137.11218"
     transform="scale(1,-1)" />
  <circle
     id="circle12"
     style="fill:none;stroke:#000000;stroke-width:0.34999999;stroke-miterlimit:4;stroke-dasharray:none"
     r="5"
     cy="-51.850735"
     cx="51.612156"
     transform="scale(1,-1)" />
  <circle
     id="circle14"
     style="fill:none;stroke:#000000;stroke-width:0.34999999;stroke-miterlimit:4;stroke-dasharray:none"
     r="2.0999999"
     cy="-59.748806"
     cx="69.14502"
     transform="scale(1,-1)" />
  <circle
     id="circle16"
     style="fill:none;stroke:#000000;stroke-width:0.34999999;stroke-miterlimit:4;stroke-dasharray:none"
     r="2.0999999"
     cy="-59.748806"
     cx="34.141941"
     transform="scale(1,-1)" />
  <circle
     id="circle18"
     style="fill:none;stroke:#000000;stroke-width:0.34999999;stroke-miterlimit:4;stroke-dasharray:none"
     r="1.65"
     cy="-51.850735"
     cx="153.11218"
     transform="scale(1,-1)" />
  <circle
     id="circle20"
     style="fill:none;stroke:#000000;stroke-width:0.34999999;stroke-miterlimit:4;stroke-dasharray:none"
     r="1.65"
     cy="-51.850735"
     cx="121.11218"
     transform="scale(1,-1)" />
  <circle
     id="circle22"
     style="fill:none;stroke:#000000;stroke-width:0.34999999;stroke-miterlimit:4;stroke-dasharray:none"
     r="10"
     cy="-51.850735"
     cx="137.11218"
     transform="scale(1,-1)" />
  <circle
     id="circle24"
     style="fill:none;stroke:#000000;stroke-width:0.34999999;stroke-miterlimit:4;stroke-dasharray:none"
     r="10"
     cy="-51.850735"
     cx="137.11218"
     transform="scale(1,-1)" />
</svg>
